<?xml version="1.0" standalone="no"?>
<!DOCTYPE svg PUBLIC "-//W3C//DTD SVG 20010904//EN"
 "http://www.w3.org/TR/2001/REC-SVG-20010904/DTD/svg10.dtd">
<svg version="1.0" xmlns="http://www.w3.org/2000/svg"
 width="116.000000pt" height="116.000000pt" viewBox="0 0 116.000000 116.000000"
 preserveAspectRatio="xMidYMid meet">
<metadata>
Created by potrace 1.14, written by Peter Selinger 2001-2017
</metadata>
<g transform="translate(0.000000,116.000000) scale(0.100000,-0.100000)"
fill="#000000" stroke="none">
<path d="M879 1123 c-20 -21 -48 -55 -62 -76 l-25 -38 -23 42 c-38 69 -120
111 -184 95 -26 -7 -54 -42 -60 -73 -1 -10 -9 -16 -16 -14 -56 16 -89 7 -101
-29 -2 -6 -14 -12 -28 -15 -71 -14 -147 -65 -194 -133 -38 -55 -82 -167 -91
-233 -8 -57 -9 -213 -1 -264 12 -83 57 -213 85 -247 6 -7 22 -27 35 -43 13
-17 46 -42 72 -55 41 -21 63 -25 139 -25 92 0 203 24 236 52 8 7 21 13 27 13
14 0 70 31 132 73 67 45 192 177 218 229 34 70 42 163 20 231 -16 49 -16 59
-4 88 17 42 4 74 -38 96 -22 11 -27 18 -16 21 29 9 50 35 50 62 0 29 -19 49
-63 68 -36 15 -110 15 -125 0 -9 -9 -12 -9 -12 0 0 13 53 50 120 85 24 12 45
29 46 39 3 26 -34 78 -55 78 -11 0 -25 2 -33 5 -7 3 -30 -11 -49 -32z"/>
</g>
</svg>
